<?xml version="1.0" encoding="UTF-8" standalone="no"?>
<!-- Created with Inkscape (http://www.inkscape.org/) -->

<svg
   width="300mm"
   height="46.283001mm"
   viewBox="0 0 300 46.283001"
   version="1.1"
   id="svg1"
   xml:space="preserve"
   inkscape:version="1.4 (e7c3feb100, 2024-10-09)"
   sodipodi:docname="logo.svg"
   xmlns:inkscape="http://www.inkscape.org/namespaces/inkscape"
   xmlns:sodipodi="http://sodipodi.sourceforge.net/DTD/sodipodi-0.dtd"
   xmlns="http://www.w3.org/2000/svg"
   xmlns:svg="http://www.w3.org/2000/svg"><sodipodi:namedview
     id="namedview1"
     pagecolor="#ffffff"
     bordercolor="#000000"
     borderopacity="0.25"
     inkscape:showpageshadow="2"
     inkscape:pageopacity="0.0"
     inkscape:pagecheckerboard="0"
     inkscape:deskcolor="#d1d1d1"
     inkscape:document-units="mm"
     inkscape:zoom="0.53629349"
     inkscape:cx="543.54566"
     inkscape:cy="281.56225"
     inkscape:window-width="1536"
     inkscape:window-height="795"
     inkscape:window-x="0"
     inkscape:window-y="0"
     inkscape:window-maximized="1"
     inkscape:current-layer="layer1" /><defs
     id="defs1" /><g
     inkscape:label="Capa 1"
     inkscape:groupmode="layer"
     id="layer1"><path
       style="fill:#ffffff;stroke-width:0.974582"
       d="m 153.55447,46.174085 c -0.28364,-0.0651 -1.15391,-0.243159 -1.93393,-0.395671 -0.78001,-0.152512 -2.38192,-0.737963 -3.55978,-1.301008 -6.42641,-3.071969 -9.94469,-10.152782 -8.83058,-17.772218 0.98705,-6.750566 4.99695,-11.488875 11.35893,-13.422328 2.30749,-0.70127 6.97596,-0.834086 9.28289,-0.264112 3.79772,0.938318 7.26009,3.418677 9.09609,6.516219 1.62802,2.746673 2.29718,5.263277 2.34101,8.804283 l 0.0376,3.036046 -13.34415,-0.01062 c -15.08076,-0.01199 -13.68543,-0.242476 -12.96226,2.14099 1.52986,5.042223 5.64841,7.913681 11.35064,7.913681 3.49646,0 6.28296,-0.953082 8.81413,-3.014751 l 1.37542,-1.120292 1.54231,1.616266 1.54232,1.616276 -1.52726,1.460128 c -1.67143,1.597963 -4.348,3.049475 -6.84762,3.713477 -1.50053,0.398604 -6.6921,0.723179 -7.73574,0.483637 z m 12.5654,-19.082163 c 0.22738,-0.22739 -0.50433,-3.061639 -1.1423,-4.424689 -2.217,-4.736671 -8.94673,-6.791635 -14.26624,-4.356282 -2.90509,1.329992 -5.44625,4.676793 -5.9454,7.830305 l -0.17347,1.095898 h 10.6911 c 5.88008,0 10.75643,-0.06539 10.83631,-0.145232 z m 20.93304,18.93425 c -1.70317,-0.383157 -3.75038,-1.761556 -4.68039,-3.151319 -1.5426,-2.305188 -1.5909,-2.731909 -1.62549,-14.36164 l -0.0314,-10.558949 h -2.68606 -2.68605 v -2.311708 -2.311698 l 2.64304,-0.07348 2.64304,-0.07348 V 9.1870927 5.1902944 l 2.77198,-0.073191 2.77197,-0.073191 0.002,2.3939039 c 9.8e-4,1.3166598 0.0758,3.1771557 0.16622,4.1344577 l 0.16438,1.740545 h 4.86201 4.86203 v 2.320722 2.320723 h -5.01649 -5.01648 l 0.0571,10.120923 c 0.0557,9.851685 0.0721,10.149137 0.62003,11.181346 0.79883,1.50491 1.95578,2.001606 4.30357,1.847602 1.29015,-0.08459 2.22381,-0.321007 3.16911,-0.802324 0.73707,-0.375292 1.39616,-0.591678 1.46464,-0.480859 0.21263,0.344037 1.4499,3.710155 1.4499,3.9446 0,0.122066 -0.6087,0.569585 -1.35267,0.994473 -2.36687,1.351784 -6.10167,1.885757 -8.85584,1.266147 z M 0.18011049,45.897089 C 0.08105011,45.798023 0,35.873244 0,23.842023 V 1.9670604 h 10.325194 c 8.42047,0 10.691839,0.075433 12.312722,0.4090514 6.105734,1.2565964 10.094843,4.8303289 11.526314,10.3261212 0.515649,1.979707 0.507011,6.397281 -0.01646,8.417413 -1.238783,4.780616 -4.583928,8.270427 -9.502109,9.913046 -2.060559,0.6882 -2.172951,0.696738 -10.394894,0.789742 l -8.3118139,0.09405 -0.068572,7.0077 -0.068571,7.0077 -2.7207933,0.0727 c -1.4964359,0.03996 -2.8018422,-0.0088 -2.90090258,-0.107438 z M 20.008325,26.701729 c 4.13127,-0.574604 6.602997,-2.179262 7.992684,-5.188897 0.692065,-1.498809 0.749777,-1.854298 0.745148,-4.589997 -0.0045,-2.654439 -0.07608,-3.118077 -0.682798,-4.421745 C 27.284373,10.827255 25.752314,9.1857283 24.257221,8.4229817 22.019584,7.281425 20.66869,7.124225 13.096586,7.124225 H 5.9307354 v 9.927537 9.927527 h 6.0410066 c 3.322553,0 6.939015,-0.124902 8.036583,-0.27756 z m 22.129851,19.008922 c -0.0739,-0.192577 -0.09927,-7.647893 -0.05637,-16.567381 l 0.07799,-16.217243 2.771975,-0.07319 2.771974,-0.07319 V 29.42022 46.060792 h -2.715602 c -2.049664,0 -2.748552,-0.08586 -2.849963,-0.350138 z m 12.012016,0.202967 c 0,-0.08099 2.804207,-3.879225 6.23157,-8.440618 3.427364,-4.561393 6.229634,-8.41138 6.227269,-8.555531 -0.0023,-0.14416 -2.587651,-3.680936 -5.745078,-7.859514 -3.157427,-4.178577 -5.799471,-7.75037 -5.871209,-7.937314 -0.104503,-0.272328 0.502618,-0.325462 3.053835,-0.26726 l 3.184267,0.07261 2.122879,2.836442 c 1.167584,1.560042 3.142548,4.254546 4.388809,5.98779 1.246261,1.733235 2.340555,3.125669 2.431764,3.094297 0.09121,-0.03138 2.109819,-2.667869 4.485799,-5.858863 2.37598,-3.190995 4.448023,-5.887058 4.604539,-5.991251 0.421802,-0.280796 6.086382,-0.23962 6.086382,0.04425 0,0.132875 -2.627897,3.747325 -5.839772,8.032122 -5.29579,7.06485 -5.809488,7.839038 -5.514664,8.311125 0.178808,0.286323 2.928639,3.988018 6.110735,8.225996 3.182095,4.237978 5.850162,7.873587 5.929039,8.079136 0.120481,0.313961 -0.366064,0.373722 -3.042938,0.373722 l -3.186349,-9e-6 -1.282598,-1.740535 c -5.633156,-7.644424 -8.182251,-11.030822 -8.33602,-11.074152 -0.09899,-0.02787 -2.308075,2.843995 -4.909072,6.38199 l -4.729084,6.432706 h -3.200051 c -1.760028,0 -3.200052,-0.06627 -3.200052,-0.147171 z m 39.132814,-21.899717 -0.06734,-22.0468795 2.838323,1.94e-5 2.838316,1.95e-5 3.640735,4.8348412 c 2.0024,2.6591655 7.78913,10.3465584 12.85939,17.0831004 5.07026,6.736533 9.29091,12.329521 9.37922,12.42885 0.0883,0.09933 0.12916,-7.588063 0.0907,-17.083091 L 124.7926,1.9670604 h 2.97214 2.97214 l -0.0659,21.9824006 -0.0659,21.982401 -2.71608,0.07261 -2.71608,0.07261 L 115.10368,32.72476 C 109.56551,25.381024 103.70955,17.601056 102.09036,15.435984 l -2.943985,-3.936492 -0.06627,17.280649 -0.06627,17.280648 h -2.83177 -2.831764 z M 203.62754,45.894516 c -0.0976,-0.09764 -0.17753,-10.021272 -0.17753,-22.052493 V 1.9670604 h 4.48886 4.48884 l 0.8979,1.611617 c 2.45714,4.4102549 14.65612,25.0859466 14.83746,25.1475496 0.11471,0.03898 3.2041,-5.124643 6.8653,-11.474685 3.6612,-6.350043 7.142,-12.3577934 7.73511,-13.3505412 l 1.07838,-1.805013 4.42952,-0.07056 4.42952,-0.07056 V 24.007829 46.06078 h -4.76801 -4.76801 l -0.0669,-13.081108 -0.0669,-13.081108 -6.1563,10.760385 -6.15631,10.760386 h -2.61587 -2.61589 l -1.91357,-3.287693 c -1.05246,-1.808229 -3.80497,-6.581009 -6.11669,-10.606177 l -4.20312,-7.318495 -0.0669,12.862441 -0.0669,12.862441 -4.6573,0.07007 c -2.56151,0.03859 -4.73719,-0.0097 -4.83484,-0.107438 z m 53.36318,-0.15605 c 0.16707,-0.276849 6.47371,-9.389568 13.29373,-19.208683 1.10752,-1.594542 2.01367,-2.969589 2.01367,-3.055664 0,-0.144589 -3.78116,-5.647886 -11.58787,-16.8656134 l -3.14037,-4.5125178 5.60919,-0.069585 c 4.27553,-0.053115 5.6821,0.0078 5.91576,0.2578646 0.16861,0.1801222 2.36219,3.3793424 4.87463,7.1093782 l 4.56807,6.7818894 4.79662,-7.1042127 4.79662,-7.104213 h 5.64318 5.64319 l -0.8909,1.224825 c -0.48999,0.67366 -3.85729,5.4905689 -7.48289,10.7042497 l -6.59202,9.479424 7.67616,11.040383 c 4.22188,6.072209 7.7602,11.176385 7.86293,11.34261 0.1407,0.227662 -1.24708,0.302237 -5.62421,0.302237 h -5.81101 l -4.90586,-7.334068 c -2.69823,-4.033745 -5.0012,-7.393001 -5.11773,-7.465023 -0.11653,-0.07202 -2.46602,3.225008 -5.22108,7.32673 l -5.00921,7.457674 -5.75257,0.0078 c -4.53539,0.0058 -5.7114,-0.06081 -5.55803,-0.314975 z M 43.902523,7.2003885 c -0.317897,-0.061301 -0.924255,-0.457722 -1.347464,-0.8809341 -2.94218,-2.9421743 0.225994,-7.7208503 3.930006,-5.92776618 1.334245,0.64589418 1.99225,1.67747918 1.99225,3.12333928 0,1.6090538 -0.637614,2.7237998 -1.91039,3.33994 -1.065349,0.5157292 -1.49346,0.5712316 -2.664402,0.345421 z"
       id="path1" /></g></svg>
